PathFileType	4	(X/Y/Z)	../motion_lab\static\static_01\task.trc
DataRate	CameraRate	NumFrames	NumMarkers	Units	OrigDataRate	OrigDataStartFrame	OrigNumFrames
200.000000	200.000000	4	73	mm	200.000000	519	693
Frame#	Time	Athlete_3:GLAB			Athlete_3:RFHD			Athlete_3:LFHD			Athlete_3:C7			Athlete_3:T6			Athlete_3:SPINMOL			Athlete_3:SPINM2			Athlete_3:SPINM3			Athlete_3:T12			Athlete_3:BELTOL			Athlete_3:BELT2			Athlete_3:BELT3			Athlete_3:SACROL			Athlete_3:SACR2			Athlete_3:SACR3			Athlete_3:LASI			Athlete_3:RASI			Athlete_3:LPSI			Athlete_3:RPSI			Athlete_3:LTHOL			Athlete_3:LTH2			Athlete_3:LTH3			Athlete_3:LKNEL			Athlete_3:LKNEM			Athlete_3:LFIB			Athlete_3:LSHAOL			Athlete_3:LSHA2			Athlete_3:LSHA3			Athlete_3:LMALL			Athlete_3:LMALM			Athlete_3:LHEE			Athlete_3:LTOE			Athlete_3:LM5			Athlete_3:RTHOL			Athlete_3:RTH2			Athlete_3:RTH3			Athlete_3:RKNEL			Athlete_3:RKNEM			Athlete_3:RFIB			Athlete_3:RSHAOL			Athlete_3:RSHA2			Athlete_3:RSHA3			Athlete_3:RMALL			Athlete_3:RMALM			Athlete_3:RHEE			Athlete_3:RTOE			Athlete_3:RM5			Athlete_3:STRN			Athlete_3:XIPH			Athlete_3:LACR			Athlete_3:LUAOL			Athlete_3:LUA2			Athlete_3:LUA3			Athlete_3:LCUBL			Athlete_3:LCUBM			Athlete_3:LLAOL			Athlete_3:LLA2			Athlete_3:LLA3			Athlete_3:LWRR			Athlete_3:LWRU			Athlete_3:RACR			Athlete_3:RUAOL			Athlete_3:RUA2			Athlete_3:RUA3			Athlete_3:RCUBL			Athlete_3:RCUBM			Athlete_3:RLAOL			Athlete_3:RLA2			Athlete_3:RLA3			Athlete_3:RWRR			Athlete_3:RWRU			Bar:BL			Bar:BR			
		X1	Y1	Z1	X2	Y2	Z2	X3	Y3	Z3	X4	Y4	Z4	X5	Y5	Z5	X6	Y6	Z6	X7	Y7	Z7	X8	Y8	Z8	X9	Y9	Z9	X10	Y10	Z10	X11	Y11	Z11	X12	Y12	Z12	X13	Y13	Z13	X14	Y14	Z14	X15	Y15	Z15	X16	Y16	Z16	X17	Y17	Z17	X18	Y18	Z18	X19	Y19	Z19	X20	Y20	Z20	X21	Y21	Z21	X22	Y22	Z22	X23	Y23	Z23	X24	Y24	Z24	X25	Y25	Z25	X26	Y26	Z26	X27	Y27	Z27	X28	Y28	Z28	X29	Y29	Z29	X30	Y30	Z30	X31	Y31	Z31	X32	Y32	Z32	X33	Y33	Z33	X34	Y34	Z34	X35	Y35	Z35	X36	Y36	Z36	X37	Y37	Z37	X38	Y38	Z38	X39	Y39	Z39	X40	Y40	Z40	X41	Y41	Z41	X42	Y42	Z42	X43	Y43	Z43	X44	Y44	Z44	X45	Y45	Z45	X46	Y46	Z46	X47	Y47	Z47	X48	Y48	Z48	X49	Y49	Z49	X50	Y50	Z50	X51	Y51	Z51	X52	Y52	Z52	X53	Y53	Z53	X54	Y54	Z54	X55	Y55	Z55	X56	Y56	Z56	X57	Y57	Z57	X58	Y58	Z58	X59	Y59	Z59	X60	Y60	Z60	X61	Y61	Z61	X62	Y62	Z62	X63	Y63	Z63	X64	Y64	Z64	X65	Y65	Z65	X66	Y66	Z66	X67	Y67	Z67	X68	Y68	Z68	X69	Y69	Z69	X70	Y70	Z70	X71	Y71	Z71	X72	Y72	Z72	X73	Y73	Z73	

520	2.595	1217.543090820313	1574.510253906251	352.528289794922	1140.947631835938	1589.109863281251	293.7982482910157	1293.126342773438	1589.257202148438	289.3370361328126	1213.460693359375	1448.6591796875	129.2276611328126	1227.643188476563	1243.260375976563	76.77109527587893	1231.664794921875	1211.159301757813	72.7240905761719	1179.462280273438	1150.518920898438	68.09499359130862	1228.426147460938	1149.343505859375	77.57204437255862	1227.224609375	1108.885009765625	91.01887512207034	1226.56201171875	1086.32470703125	68.27569580078128	1173.412475585938	1026.761474609375	69.72523498535159	1223.036499023438	1024.524780273438	62.21654891967776	1248.359252929688	975.4147949218755	72.90476989746097	1198.56005859375	985.0344848632817	79.77779388427737	1209.823852539063	926.9461059570317	49.41426086425784	1336.718872070313	942.5591430664067	289.0791320800782	1109.007202148438	942.2786254882817	292.9402160644532	1260.167724609375	991.4458007812505	84.37967681884768	1170.90771484375	990.0968627929692	85.03330993652347	1444.043579101563	737.5447387695315	203.3013000488282	1427.277221679688	676.961120605469	154.0367431640626	1441.317993164063	675.5510253906252	202.3482513427736	1427.47021484375	497.7258605957034	193.4556579589845	1283.648071289063	465.9761352539065	216.9397735595704	1428.449829101563	442.2351684570315	153.2184600830079	1449.988647460938	326.2826538085939	145.5435791015626	1444.628173828125	260.3414916992189	102.1974716186524	1450.22509765625	264.3897399902345	151.5712127685547	1434.110961914063	85.36737060546878	126.208610534668	1350.45166015625	96.31812286376959	169.4417572021485	1374.815795898438	38.95368957519533	78.458854675293	1391.233764648438	47.31601715087892	289.6835937500001	1492.152099609375	32.10426330566408	238.5700836181642	1006.62744140625	708.297790527344	175.3724670410157	992.746459960938	636.0551757812502	206.6952209472657	1009.808288574219	647.666442871094	160.933334350586	1014.041320800782	496.924255371094	160.8199615478516	1151.751831054688	461.4742736816409	209.3655700683595	1015.594116210938	442.5344238281252	116.8174209594727	998.585327148438	323.3423767089845	91.51570892333987	983.2540893554692	256.1006469726564	131.0809020996094	1002.481384277344	262.2468872070314	85.06269836425784	1016.823852539063	86.79232025146487	90.09370422363284	1084.308349609375	97.00577545166021	153.0894775390626	1077.69482421875	38.27846908569337	58.08030700683597	1022.300720214844	43.18689727783205	261.5897521972657	937.2033081054692	40.96326065063478	202.3587036132814	1225.78515625	1368.510375976563	279.6968383789064	1227.21630859375	1210.774536132813	318.505828857422	1401.6103515625	1413.521850585938	140.3981323242188	1515.3369140625	1348.387084960938	129.1195068359376	1558.013183593751	1298.013427734375	120.4932937622071	1574.771362304688	1333.821533203125	154.3503417968751	1683.193237304688	1296.908935546875	166.8876495361329	1633.283447265626	1210.814453125	189.7019195556641	1768.696655273438	1265.5380859375	196.5132293701173	1823.226074218751	1229.227783203125	202.8279571533204	1816.562255859376	1260.791137695313	241.3817596435548	1861.689575195313	1189.755249023438	311.3085937500001	1904.565307617188	1211.647827148438	254.1309661865236	1042.722900390625	1403.782470703125	157.3181457519532	909.8602905273442	1337.342651367188	168.2373352050782	866.9201049804692	1329.394775390625	218.5671844482423	846.3395996093755	1317.828369140625	173.4685516357422	795.7601928710942	1291.43603515625	166.1520233154297	809.104858398438	1197.994873046875	222.3415374755861	673.1087646484377	1274.564453125	224.1034088134767	633.4206542968752	1263.286254882813	274.9746398925782	613.1204223632815	1250.36474609375	230.1300811767579	580.2858886718752	1183.566528320313	313.1146850585939	543.8565673828127	1215.639526367188	246.7936096191407	2307.392333984376	1285.453369140625	1512.080444335938	83.95192718505862	1283.411376953125	1540.673583984376	
521	2.6	1217.56787109375	1574.517578125001	352.4936828613282	1140.956420898438	1589.119506835938	293.7674255371095	1293.13037109375	1589.261962890626	289.3050231933595	1213.464599609375	1448.661010742188	129.199447631836	1227.649658203125	1243.25830078125	76.74720764160159	1231.67236328125	1211.154174804688	72.71142578125003	1179.46044921875	1150.519653320313	68.08839416503909	1228.432006835938	1149.34130859375	77.55778503417972	1227.231567382813	1108.884765625	91.01165771484378	1226.562377929688	1086.324829101563	68.2714767456055	1173.423828125	1026.754638671875	69.72801208496097	1223.045043945313	1024.5244140625	62.22213363647464	1248.389770507813	975.4456176757817	72.82635498046878	1198.5712890625	985.0269165039067	79.76750946044925	1209.826904296875	926.938110351563	49.40050125122073	1336.719116210938	942.5524291992192	289.0702209472657	1109.006469726563	942.276733398438	292.9322814941407	1260.175170898438	991.448364257813	84.37974548339847	1170.909912109375	990.0989379882817	85.02109527587893	1444.043334960938	737.5461425781252	203.3131866455079	1427.276000976563	676.9544067382815	154.0509796142579	1441.323486328125	675.5548095703127	202.3520355224611	1427.470458984375	497.7225341796877	193.4521636962892	1283.65478515625	465.975524902344	216.9485168457032	1428.454711914063	442.2309875488284	153.2166290283204	1449.984497070313	326.2767944335939	145.5427856445313	1444.6357421875	260.3447875976564	102.2005462646485	1450.224731445313	264.3907165527345	151.5645446777344	1434.114135742188	85.36997985839847	126.2050399780274	1350.45751953125	96.32130432128912	169.4438171386719	1374.815673828125	38.95283889770509	78.46208190917972	1391.232543945313	47.32192993164064	289.6843872070314	1492.148681640625	32.11047363281251	238.5795135498048	1006.629638671875	708.299255371094	175.3681945800782	992.7377929687505	636.0689697265627	206.6888732910157	1009.812255859375	647.6653442382815	160.9322204589844	1014.039367675782	496.9305114746096	160.8144989013672	1151.74267578125	461.4754943847659	209.3691253662111	1015.602600097657	442.5312194824221	116.8117218017579	998.3270874023442	323.3444824218751	91.405143737793	983.256225585938	256.1024475097657	131.0865173339844	1002.481567382813	262.2414855957032	85.06394958496097	1016.824096679688	86.79022979736331	90.09667968750003	1084.309692382813	97.01169586181646	153.093978881836	1077.692260742188	38.28011322021486	58.08832168579104	1022.254760742188	43.20645904541017	261.6058959960939	937.2102050781255	40.96873092651369	202.3522796630861	1225.788452148438	1368.53173828125	279.6893920898439	1227.222412109375	1210.803100585938	318.5307922363282	1401.60986328125	1413.538208007813	140.3669128417969	1515.346313476563	1348.40673828125	129.1319885253907	1558.021484375001	1298.032958984375	120.4874877929688	1574.770019531251	1333.8486328125	154.3632507324219	1683.197998046876	1296.931274414063	166.8962860107422	1633.291381835938	1210.830688476563	189.7239685058594	1768.708984375001	1265.572143554688	196.5278778076173	1823.242675781251	1229.268676757813	202.8332366943361	1816.575683593751	1260.829467773438	241.3881988525392	1861.701782226563	1189.799926757813	311.310272216797	1904.568237304688	1211.683227539063	254.1267700195314	1042.726440429688	1403.799926757813	157.2960815429688	909.8442382812505	1337.382080078125	168.2196197509766	866.8953247070317	1329.426025390625	218.5500030517579	846.327758789063	1317.882690429688	173.4423065185547	795.753784179688	1291.474365234375	166.1340484619141	809.0858764648442	1198.028564453125	222.3192291259767	673.0467529296877	1274.584716796875	224.1020507812501	633.5828247070315	1263.50146484375	274.8808593750001	613.1556396484377	1250.301879882813	230.1880035400392	580.2612915039065	1183.643188476563	313.1116333007814	543.8377075195315	1215.723754882813	246.8017730712892	2307.403808593751	1285.471313476563	1512.097412109375	83.94343566894534	1283.418334960938	1540.680419921876	
522	2.605	1217.586059570313	1574.517211914063	352.4716186523439	1140.970336914063	1589.122802734376	293.7562561035157	1293.142944335938	1589.258300781251	289.2782592773439	1213.454467773438	1448.64990234375	129.1837005615235	1227.650390625	1243.260498046875	76.73133850097659	1231.683227539063	1211.158203125	72.68909454345706	1179.465209960938	1150.5078125	68.07526397705081	1228.432250976563	1149.339477539063	77.54888153076175	1227.233276367188	1108.883178710938	90.9969177246094	1226.566772460938	1086.323852539063	68.27160644531253	1173.425659179688	1026.758544921875	69.71990966796878	1223.056762695313	1024.524047851563	62.21657562255862	1248.375366210938	975.4454956054692	72.82364654541018	1198.576782226563	985.0328979492192	79.7714767456055	1209.824462890625	926.9253540039067	49.38347625732425	1336.724487304688	942.5501098632817	289.0781860351564	1109.001342773438	942.274536132813	292.9271240234376	1260.178466796875	991.4499511718755	84.36443328857425	1170.91455078125	990.1046752929692	85.01346588134768	1444.04443359375	737.5472412109377	203.324676513672	1427.293823242188	676.9608154296877	154.0525512695313	1441.333374023438	675.5534667968752	202.3671417236329	1427.47314453125	497.7181396484377	193.4590301513673	1283.656005859375	465.9751586914065	216.9562988281251	1428.45556640625	442.2320556640627	153.2185668945313	1449.986328125	326.2771911621095	145.5459899902344	1444.630981445313	260.3454895019532	102.2037963867188	1450.22265625	264.389862060547	151.5666046142579	1434.113647460938	85.36905670166018	126.2147598266602	1350.457641601563	96.32349395751959	169.4508209228516	1374.822998046875	38.96037673950197	78.4431076049805	1391.2353515625	47.3211135864258	289.6825561523439	1492.143676757813	32.10750579833986	238.5756378173829	1006.631408691407	708.3024902343752	175.3625183105469	992.7459106445317	636.0709228515627	206.6851348876954	1009.818420410157	647.6672363281252	160.9329833984376	1014.041076660157	496.9365539550784	160.8081054687501	1151.744873046875	461.4822082519534	209.3677062988282	1015.6015625	442.535827636719	116.8113174438477	998.599731445313	323.3507080078126	91.52517700195315	983.2536010742192	256.1041259765626	131.0797576904297	1002.484130859375	262.2474060058595	85.06530761718753	1016.825012207032	86.79532623291018	90.09864807128909	1084.31201171875	97.00856781005865	153.0896148681641	1077.693969726563	38.28622436523439	58.0817794799805	1022.252380371094	43.20640563964845	261.6064758300782	937.206665039063	40.96969985961915	202.3509674072267	1225.792724609375	1368.544555664063	279.6876220703126	1227.216064453125	1210.825805664063	318.544891357422	1401.610107421875	1413.539672851563	140.3595581054688	1515.380981445313	1348.427978515625	129.1356811523438	1558.045288085938	1298.050170898438	120.4799499511719	1574.784790039063	1333.864135742188	154.3629913330079	1683.197753906251	1296.954956054688	166.8966979980469	1633.299682617188	1210.855346679688	189.7385559082032	1768.709960937501	1265.6025390625	196.5142517089845	1823.262451171876	1229.29052734375	202.8327941894532	1816.578857421876	1260.858154296875	241.3867645263673	1861.715087890626	1189.842041015625	311.3185119628907	1904.578125000001	1211.71826171875	254.1272583007814	1042.726196289063	1403.813232421875	157.278793334961	909.818481445313	1337.39208984375	168.1928710937501	866.9604492187505	1329.296630859375	218.4847412109376	846.3261718750005	1317.921875	173.4265899658204	795.7439575195317	1291.510864257813	166.1196899414063	809.0422973632817	1198.251708984375	222.4457244873048	673.2941894531252	1274.43505859375	224.0753021240236	633.5556640625002	1263.58642578125	274.8956604003907	613.096618652344	1250.489624023438	230.1253662109376	580.244567871094	1183.727294921875	313.1104125976564	543.8190917968752	1215.804931640625	246.8071746826173	2307.396972656251	1285.44921875	1512.085815429688	83.94734191894534	1283.41845703125	1540.670288085938	
523	2.61	1217.613525390625	1574.528076171876	352.4375915527345	1140.982666015625	1589.128051757813	293.7409973144532	1293.158325195313	1589.259155273438	289.2378540039064	1213.459350585938	1448.6494140625	129.1646728515626	1227.64892578125	1243.263793945313	76.71425628662112	1231.682250976563	1211.147094726563	72.67603302001956	1179.461059570313	1150.510131835938	68.05527496337893	1228.43115234375	1149.336669921875	77.53742218017581	1227.237060546875	1108.88330078125	90.98822021484378	1226.572143554688	1086.320556640625	68.26795959472659	1173.435791015625	1026.753784179688	69.71244049072268	1223.059692382813	1024.520385742188	62.21298599243167	1248.386108398438	975.455688476563	72.83220672607425	1198.586791992188	985.0400390625005	79.760368347168	1209.82763671875	926.9257202148442	49.3892517089844	1336.729370117188	942.5523071289067	289.0765686035157	1109.003051757813	942.2738647460942	292.9196777343751	1260.179321289063	991.4470825195317	84.36537933349612	1170.920288085938	990.099731445313	85.0180587768555	1444.038330078125	737.5458984375002	203.3206939697267	1427.2978515625	676.9492797851565	154.0549621582032	1441.33203125	675.5520629882815	202.3670959472657	1427.477905273438	497.7167663574221	193.4609375000001	1283.424438476563	465.9749755859377	217.0150451660157	1428.458129882813	442.2336120605471	153.2214508056641	1449.989013671875	326.273651123047	145.5488891601563	1444.6328125	260.3441162109376	102.2040100097657	1450.224731445313	264.3927001953126	151.5673522949219	1434.11279296875	85.37016296386722	126.2093811035157	1350.456909179688	96.32955932617193	169.4472808837891	1374.815551757813	38.95628738403322	78.45465850830081	1391.23291015625	47.32368469238283	289.6796264648439	1492.147705078125	32.1102867126465	238.575408935547	1006.6376953125	708.3047485351565	175.3564453125001	992.7417602539067	636.0786132812502	206.6827697753907	1009.8193359375	647.665710449219	160.9328918457032	1014.040649414063	496.937683105469	160.808334350586	1151.744873046875	461.480163574219	209.3715667724611	1015.605407714844	442.5372314453127	116.8068084716797	998.6218872070317	323.339080810547	91.52812194824222	983.259155273438	256.1143493652345	131.0928497314454	1002.497680664063	262.2457275390626	85.06919860839847	1016.828308105469	86.798454284668	90.09873962402347	1084.31494140625	97.00935363769537	153.0927734375001	1077.695922851563	38.27807998657228	58.08282089233401	1022.301391601563	43.18984222412111	261.5930480957032	937.2094726562505	40.96699142456056	202.3587036132814	1225.786010742188	1368.558837890625	279.6670227050782	1227.223388671875	1210.856567382813	318.5590209960939	1401.608154296875	1413.545532226563	140.3502807617188	1515.376586914063	1348.4462890625	129.1092529296876	1558.053833007813	1298.058471679688	120.4802627563477	1574.796630859376	1333.878784179688	154.3754882812501	1683.197265625001	1296.970458984375	166.8926391601563	1633.308349609376	1210.875366210938	189.7448730468751	1768.694580078126	1265.604736328125	196.5066986083986	1823.270874023438	1229.307006835938	202.8352508544923	1816.589111328126	1260.8837890625	241.3834991455079	1861.721679687501	1189.885986328125	311.3318481445314	1904.590209960938	1211.748657226563	254.1304321289064	1042.726684570313	1403.826049804688	157.2753601074219	909.8994140625005	1337.4638671875	168.2825927734376	866.947387695313	1329.364379882813	218.4768981933595	846.3245239257817	1317.966796875	173.4064636230469	795.723510742188	1291.556640625	166.1026916503907	809.0244750976567	1198.298950195313	222.4311370849611	673.169860839844	1274.59619140625	223.9678802490236	633.4978027343752	1263.6923828125	274.9411926269532	613.119079589844	1250.492553710938	230.1617736816407	580.2288208007815	1183.8125	313.131561279297	543.7934570312502	1215.889892578125	246.8103790283204	2307.382812500001	1285.446655273438	1512.076416015625	83.95271301269534	1283.417358398438	1540.678222656251	
